<?xml version="1.0" encoding="iso-8859-1"?>
<!-- Generator: Adobe Illustrator 21.0.0, SVG Export Plug-In . SVG Version: 6.00 Build 0)  -->
<svg version="1.1" id="Capa_1" xmlns="http://www.w3.org/2000/svg" xmlns:xlink="http://www.w3.org/1999/xlink" x="0px" y="0px"
	 viewBox="0 0 512 512" style="enable-background:new 0 0 512 512;" xml:space="preserve">
<g id="XMLID_1107_">
	<g id="XMLID_1108_">
		<g id="XMLID_1109_">
			<path style="fill:#93A3AF;" d="M338.275,158.133h-13.392V76.748h13.392c5.69,0,10.302,4.612,10.302,10.302v60.781
				C348.577,153.521,343.965,158.133,338.275,158.133z"/>
			<path style="fill:#93A3AF;" d="M25.1,251.879h13.392v-40.177H25.1c-5.69,0-10.302,4.612-10.302,10.302v19.573
				C14.799,247.267,19.411,251.879,25.1,251.879z"/>
			<path style="fill:#93A3AF;" d="M25.1,178.736h13.392V76.748H25.1c-5.69,0-10.302,4.612-10.302,10.302v81.384
				C14.799,174.124,19.411,178.736,25.1,178.736z"/>
			<path style="fill:#93A3AF;" d="M25.1,315.75h13.392v-40.177H25.1c-5.69,0-10.302,4.612-10.302,10.302v19.573
				C14.799,311.138,19.411,315.75,25.1,315.75z"/>
			<path style="fill:#7B8C98;" d="M35.833,491.396V20.604C35.833,9.225,45.058,0,56.437,0h250.502
				c11.379,0,20.604,9.225,20.604,20.604v470.793c0,11.379-9.225,20.604-20.604,20.604H56.437
				C45.058,512,35.833,502.775,35.833,491.396z"/>
			<path id="XMLID_1110_" style="fill:#627687;" d="M327.541,20.604v470.793c0,11.384-9.22,20.604-20.604,20.604h-20.171
				c11.383,0,20.604-9.22,20.604-20.604V20.604C307.37,9.22,298.15,0,286.766,0h20.171C318.321,0,327.541,9.22,327.541,20.604z"/>
			<rect x="35.833" y="52.024" style="fill:#7FB7EA;" width="291.709" height="407.952"/>
			<rect x="307.37" y="52.024" style="fill:#5F9EEB;" width="20.173" height="407.952"/>
			<path id="XMLID_1111_" style="fill:#627687;" d="M201.861,35.37h-40.346c-4.267,0-7.726-3.459-7.726-7.726
				s3.459-7.726,7.726-7.726h40.346c4.267,0,7.726,3.459,7.726,7.726S206.128,35.37,201.861,35.37z"/>
		</g>
		<g id="XMLID_1112_">
			<path id="XMLID_1113_" style="fill:#0D73CE;" d="M387.195,263.726H242.608c-4.267,0-7.726-3.459-7.726-7.726
				c0-4.267,3.459-7.726,7.726-7.726h144.587c4.267,0,7.726,3.459,7.726,7.726C394.921,260.267,391.462,263.726,387.195,263.726z"/>
			<path id="XMLID_1114_" style="fill:#0D73CE;" d="M217.578,209.401c-2.625,0-5.184-1.338-6.633-3.752
				c-2.196-3.659-1.009-8.405,2.65-10.601L379.722,91.242c3.66-2.195,8.406-1.009,10.601,2.65c2.196,3.659,1.009,8.405-2.65,10.601
				L221.546,208.299C220.302,209.046,218.931,209.401,217.578,209.401z"/>
			<g id="XMLID_1115_">
				<path id="XMLID_1116_" style="fill:#0D73CE;" d="M391.564,427.409c-1.353,0-2.723-0.355-3.968-1.102L211.535,314.891
					c-3.659-2.196-4.846-6.942-2.65-10.601c2.196-3.659,6.942-4.846,10.601-2.65l176.061,111.416
					c3.659,2.196,4.846,6.942,2.65,10.601C396.749,426.071,394.189,427.409,391.564,427.409z"/>
			</g>
			<path id="XMLID_1117_" style="fill:#74E2CD;" d="M249.68,257.502c0,8.237-1.469,16.131-4.158,23.445
				c-9.55,25.993-34.527,44.546-63.834,44.546s-54.284-18.553-63.834-44.546c-2.688-7.315-4.158-15.208-4.158-23.445
				c0-37.56,30.448-67.992,67.992-67.992C219.232,189.51,249.68,219.942,249.68,257.502z"/>
			<path id="XMLID_1118_" style="fill:#EB5777;" d="M245.518,280.951c-9.55,25.991-34.521,44.545-63.83,44.545
				s-54.28-18.554-63.83-44.545c5.615-15.308,16.576-28.021,30.617-35.902c9.818-5.511,21.15-8.654,33.213-8.654
				s23.395,3.142,33.213,8.654C228.942,252.93,239.903,265.642,245.518,280.951z"/>
			<path id="XMLID_1119_" style="fill:#CE3F63;" d="M214.901,245.049c-8.829,7.902-20.47,12.702-33.213,12.702
				c-12.743,0-24.384-4.801-33.213-12.702c9.818-5.511,21.15-8.654,33.213-8.654S205.083,239.538,214.901,245.049z"/>
			<g id="XMLID_1120_">
				<circle style="fill:#F8C298;" cx="181.688" cy="207.875" r="37.513"/>
			</g>
		</g>
	</g>
	<g id="XMLID_1121_">
		<g id="XMLID_1122_">
			<path id="XMLID_1123_" style="fill:#A0D37D;" d="M497.201,79.113c0,7.479-1.334,14.645-3.775,21.286
				c-8.671,23.599-31.347,40.444-57.955,40.444c-26.608,0-49.284-16.844-57.955-40.444c-2.441-6.641-3.775-13.808-3.775-21.286
				c0-34.1,27.644-61.73,61.73-61.73C469.558,17.384,497.201,45.013,497.201,79.113z"/>
			<path id="XMLID_1124_" style="fill:#F1DD47;" d="M493.423,100.403c-8.67,23.598-31.342,40.442-57.951,40.442
				S386.191,124,377.521,100.403c5.097-13.899,15.049-25.44,27.797-32.595c8.913-5.004,19.202-7.857,30.154-7.857
				c10.952,0,21.241,2.853,30.154,7.857C478.374,74.963,488.326,86.504,493.423,100.403z"/>
			<path id="XMLID_1125_" style="fill:#EFC40F;" d="M465.626,67.808c-8.016,7.174-18.584,11.532-30.154,11.532
				c-11.57,0-22.139-4.358-30.154-11.532c8.913-5.004,19.202-7.857,30.154-7.857C446.424,59.951,456.712,62.804,465.626,67.808z"/>
			<g id="XMLID_1126_">
				<circle style="fill:#F8C298;" cx="435.472" cy="34.058" r="34.058"/>
			</g>
		</g>
		<g id="XMLID_1127_">
			<path id="XMLID_1128_" style="fill:#74E2CD;" d="M497.201,264.691c0,7.479-1.334,14.645-3.775,21.286
				c-8.671,23.599-31.347,40.444-57.955,40.444c-26.608,0-49.284-16.844-57.955-40.444c-2.441-6.641-3.775-13.808-3.775-21.286
				c0-34.1,27.644-61.73,61.73-61.73C469.558,202.961,497.201,230.59,497.201,264.691z"/>
			<path id="XMLID_1129_" style="fill:#3A82D0;" d="M493.423,285.98c-8.67,23.598-31.342,40.442-57.951,40.442
				s-49.281-16.845-57.951-40.442c5.097-13.899,15.049-25.44,27.797-32.595c8.913-5.004,19.202-7.857,30.154-7.857
				c10.952,0,21.241,2.853,30.154,7.857C478.374,260.54,488.326,272.082,493.423,285.98z"/>
			<path id="XMLID_1130_" style="fill:#0D73CE;" d="M465.626,253.385c-8.016,7.174-18.584,11.532-30.154,11.532
				c-11.57,0-22.139-4.358-30.154-11.532c8.913-5.004,19.202-7.857,30.154-7.857C446.424,245.529,456.712,248.381,465.626,253.385z"
				/>
			<g id="XMLID_1131_">
				<circle style="fill:#FFD6C0;" cx="435.472" cy="219.635" r="34.058"/>
			</g>
		</g>
		<g id="XMLID_1132_">
			<path id="XMLID_1133_" style="fill:#FAAA3C;" d="M497.201,450.268c0,7.479-1.334,14.645-3.775,21.286
				c-8.671,23.599-31.347,40.444-57.955,40.444c-26.608,0-49.284-16.844-57.955-40.444c-2.441-6.641-3.775-13.808-3.775-21.286
				c0-34.1,27.644-61.73,61.73-61.73C469.558,388.538,497.201,416.168,497.201,450.268z"/>
			<path id="XMLID_1134_" style="fill:#74E2CD;" d="M493.423,471.558C484.753,495.155,462.081,512,435.472,512
				s-49.281-16.845-57.951-40.442c5.097-13.899,15.049-25.44,27.797-32.595c8.913-5.004,19.202-7.857,30.154-7.857
				c10.952,0,21.241,2.853,30.154,7.857C478.374,446.118,488.326,457.659,493.423,471.558z"/>
			<path id="XMLID_1135_" style="fill:#4FCEB7;" d="M465.626,438.963c-8.016,7.174-18.584,11.532-30.154,11.532
				c-11.57,0-22.139-4.358-30.154-11.532c8.913-5.004,19.202-7.857,30.154-7.857C446.424,431.106,456.712,433.959,465.626,438.963z"
				/>
			<g id="XMLID_1136_">
				<circle style="fill:#BA6F3C;" cx="435.472" cy="405.213" r="34.058"/>
			</g>
		</g>
	</g>
</g>
<g>
</g>
<g>
</g>
<g>
</g>
<g>
</g>
<g>
</g>
<g>
</g>
<g>
</g>
<g>
</g>
<g>
</g>
<g>
</g>
<g>
</g>
<g>
</g>
<g>
</g>
<g>
</g>
<g>
</g>
</svg>
